<svg width="1800" height="422" viewBox="0 0 1800 422" fill="none" xmlns="http://www.w3.org/2000/svg">
  <path d="M1800 0H1661.51L1383.75 244.065L1099.42 0H954.679V5.38568L1351.65 373.428L961.656 421.781V422H1095.31L1376.7 187.828L1660.3 422H1800V0Z" fill="black"/>
  <path d="M807.326 236.708L913.749 421.793H769.005L672.709 246.57L574.422 421.793H429.678L536.102 236.708L431.946 48.7651H574.422L671.262 220.969L767.11 48.7651H912.962L807.326 236.708Z" fill="black"/>
  <path d="M274.79 422H129.694V0H272.664C338.73 0 390.306 19.8497 427.382 59.5488C461.425 95.6042 478.447 144.992 478.447 207.709C478.447 270.427 461.425 319.815 427.382 355.871C390.306 395.57 338.73 415.419 272.664 415.419H197.463V422H274.79ZM197.463 355.871H267.254C316.641 355.871 354.785 342.26 381.686 315.038C405.609 289.518 417.571 252.913 417.571 207.709C417.571 162.505 405.609 125.899 381.686 100.379C354.785 73.157 316.641 59.5461 267.254 59.5461H197.463V355.871Z" fill="black"/>
  <path d="M0 0V421.793H139.494V355.871H77.4791V65.922H139.494V0H0Z" fill="black"/>
</svg>
